<svg xmlns="http://www.w3.org/2000/svg" viewBox="0 0 32 32" width="32" height="32" fill="white">
  <path d="M16 .396C7.2.396.003 7.592.003 16.4c0 2.883.756 5.692 2.201 8.168L.056 32l7.65-2.125A15.89 15.89 0 0 0 16 32c8.8 0 15.997-7.197 15.997-16S24.8.396 16 .396zm0 29.18c-2.48 0-4.902-.664-7.01-1.924l-.5-.297-4.541 1.26 1.213-4.424-.327-.545a13.34 13.34 0 0 1-2.031-7.17c0-7.377 6.004-13.381 13.381-13.381 7.377 0 13.381 6.004 13.381 13.381 0 7.377-6.004 13.381-13.381 13.381zm7.322-9.994c-.402-.201-2.373-1.172-2.74-1.305-.367-.134-.635-.201-.902.201-.268.402-1.037 1.305-1.27 1.572-.234.268-.469.301-.87.101-.402-.201-1.697-.625-3.236-1.99-1.195-1.065-2.004-2.381-2.238-2.783-.234-.402-.025-.62.176-.82.181-.182.402-.469.604-.704.201-.234.268-.402.402-.67.134-.268.067-.502-.033-.703-.101-.201-.902-2.178-1.236-2.99-.326-.787-.66-.678-.902-.69-.234-.012-.502-.012-.77-.012s-.704.101-1.073.503c-.367.402-1.402 1.37-1.402 3.34s1.436 3.873 1.635 4.141c.201.268 2.83 4.32 6.86 6.057.96.414 1.71.662 2.295.847.962.307 1.84.264 2.535.16.774-.115 2.373-.971 2.707-1.91.334-.94.334-1.744.234-1.91-.101-.167-.367-.268-.77-.469z"/>
</svg>
